<svg width="31" height="45" viewBox="0 0 31 45" fill="none" xmlns="http://www.w3.org/2000/svg">
<path fill-rule="evenodd" clip-rule="evenodd" d="M11.4983 1.71064C13.6786 -0.570212 17.3214 -0.570212 19.5017 1.71064L20.0856 2.3215H25.8299C28.6852 2.3215 31 4.63627 31 7.49168V20.1623H28.7857V7.49168C28.7857 5.85919 27.4623 4.53579 25.8299 4.53579H19.6123C19.3099 4.53579 19.0208 4.41219 18.8119 4.19367L17.901 3.24066C16.5929 1.87216 14.4071 1.87216 13.099 3.24066L12.1881 4.19367C11.9792 4.41219 11.6901 4.53579 11.3877 4.53579H5.53571C3.70129 4.53579 2.21429 6.02285 2.21429 7.85726V26.773C3.65545 26.7497 5.01824 26.7914 6.31127 26.8391C6.50867 26.8463 6.70419 26.8537 6.89794 26.861C8.31874 26.915 9.64432 26.9651 10.9406 26.9375C13.8491 26.8756 16.523 26.4218 19.366 24.7445C22.8188 22.7074 25.7412 23.3192 27.7614 24.4949C28.1364 24.7131 28.4781 24.949 28.7857 25.1875V20.1623H31V32.3409C31 35.3982 28.5216 37.8767 25.4643 37.8767H22.1429V40.091H16.6071V44.5195H14.3929V40.091H8.85714V37.8767H5.53571C2.47845 37.8767 0 35.3982 0 32.3409V7.85726C0 4.79994 2.47845 2.3215 5.53571 2.3215H10.9144L11.4983 1.71064Z" fill="#3688FF"/>
<path fill-rule="evenodd" clip-rule="evenodd" d="M9.41116 9.09082C9.87261 9.09082 10.2858 9.37713 10.4478 9.80925L14.3228 20.1425C14.5374 20.715 14.2474 21.3532 13.6749 21.568C13.1024 21.7827 12.4642 21.4926 12.2495 20.9201L11.5502 19.0551H7.27216L6.57277 20.9201C6.3581 21.4926 5.71994 21.7827 5.14744 21.568C4.57493 21.3532 4.28475 20.715 4.49954 20.1425L8.37454 9.80925C8.53651 9.37713 8.9497 9.09082 9.41116 9.09082ZM9.41116 13.3511L10.7198 16.8408H8.10251L9.41116 13.3511Z" fill="#3688FF"/>
<path fill-rule="evenodd" clip-rule="evenodd" d="M19.0982 9.09082H15.5V21.2694H19.0982C21.0987 21.2694 22.7934 19.6979 22.7934 17.6712C22.7934 16.6929 22.3986 15.8207 21.7651 15.1801C22.3986 14.5395 22.7934 13.6673 22.7934 12.689C22.7934 10.6623 21.0987 9.09082 19.0982 9.09082ZM20.5791 12.689C20.5791 11.9642 19.9564 11.3051 19.0982 11.3051H17.7143V14.073H19.0982C19.9564 14.073 20.5791 13.4139 20.5791 12.689ZM19.0982 16.2872H17.7143V19.0551H19.0982C19.9564 19.0551 20.5791 18.396 20.5791 17.6712C20.5791 16.9463 19.9564 16.2872 19.0982 16.2872Z" fill="#3688FF"/>
</svg>
