<svg width="28" height="44" viewBox="0 0 28 44" fill="none" xmlns="http://www.w3.org/2000/svg">
<path d="M12.0801 42.1202C12.0801 42.9966 12.9096 43.7073 13.9326 43.7073C14.9556 43.7073 15.7851 42.9966 15.7851 42.1202C15.7851 41.2437 13.9326 39.1089 13.9326 39.1089C13.9326 39.1089 12.0801 41.2437 12.0801 42.1202Z" fill="#3688FF"/>
<path d="M18.0161 6.63488H17.8051V3.31762C17.8052 1.4851 16.0711 0 13.9327 0C11.7942 0 10.0603 1.4851 10.0603 3.31762V6.63524H9.98377C4.46975 6.63524 0 10.4646 0 15.1886V27.0465C0 31.7705 4.46975 35.5999 9.98377 35.5999H11.5733V36.5392C11.5733 37.6332 12.6085 38.5201 13.8855 38.5201C15.1624 38.5201 16.1977 37.6332 16.1977 36.5392V35.5999H18.0162C23.5302 35.5999 28 31.7705 28 27.0465V15.1883C28 10.4643 23.5301 6.63488 18.0161 6.63488ZM13.9327 2.00965C14.7755 2.00965 15.459 2.59512 15.459 3.31726C15.459 4.03941 14.7756 4.62487 13.9327 4.62487C13.0899 4.62487 12.4064 4.03941 12.4064 3.31726C12.4064 2.59512 13.0899 2.00965 13.9327 2.00965ZM26.3361 27.0462C26.3361 30.9767 22.6039 34.1742 18.0161 34.1742H9.98367C5.3959 34.1742 1.6637 30.9767 1.6637 27.0462V15.1884C1.6637 11.2579 5.3959 8.0604 9.98367 8.0604H18.0161C22.6039 8.0604 26.3361 11.2579 26.3361 15.1884V27.0462Z" fill="#3688FF"/>
<path d="M3.32812 27.0455C3.32812 30.1898 6.31415 32.748 9.98418 32.748H18.0166C21.6867 32.748 24.6727 30.1898 24.6727 27.0455V15.1384H3.32812V27.0455ZM13.4618 16.5953H16.7147V17.362H13.4618V16.5953ZM13.4618 18.1716H15.0884V18.9383H13.4618V18.1716ZM13.4618 19.8757H16.7147V20.6424H13.4618V19.8757ZM13.4618 21.4519H15.0884V22.2185H13.4618V21.4519ZM13.4618 23.156H16.7147V23.9227H13.4618V23.156ZM13.4618 24.7322H15.0884V25.4989H13.4618V24.7322ZM13.4618 26.4363H16.7147V27.203H13.4618V26.4363ZM13.4618 28.013H15.0884V28.7797H13.4618V28.013ZM13.4618 29.7171H16.7147V30.4838H13.4618V29.7171Z" fill="#3688FF"/>
</svg>
