<svg width="35" height="35" viewBox="0 0 35 35" fill="none" xmlns="http://www.w3.org/2000/svg">
<path d="M29.7795 22.878L22.9873 21.058C23.2105 18.6299 22.9873 15.8682 21.6694 13.2815C21.4725 6.50569 23.7114 0.198033 29.1452 1.65381C35.1258 3.25725 34.4663 16.858 29.7795 22.878ZM29.3322 25.7426C28.957 38.838 15.6472 32.8487 22.4219 23.8908L29.3322 25.7426ZM5.53219 22.8791L12.3244 21.0591C12.1013 18.631 12.3244 15.8693 13.6423 13.2826C13.8392 6.50678 11.6003 0.199127 6.16657 1.65491C0.185943 3.25725 0.845474 16.858 5.53219 22.8791ZM5.98063 25.7437C6.35579 38.8402 19.6656 32.8498 12.8909 23.8919L5.98063 25.7437Z" fill="#3688FF"/>
</svg>
